<?xml version="1.0" encoding="iso-8859-1"?>
<!-- Uploaded to: SVG Repo, www.svgrepo.com, Generator: SVG Repo Mixer Tools -->
<svg height="800px" width="800px" version="1.1" id="Layer_1" xmlns="http://www.w3.org/2000/svg" xmlns:xlink="http://www.w3.org/1999/xlink" 
	 viewBox="0 0 511.99 511.99" xml:space="preserve">
<path style="fill:#4FC2E9;" d="M298.65,373.333h-63.991c-4.164,0-7.953-2.438-9.695-6.219l-21.328-46.5
	c-2.461-5.375-0.109-11.688,5.242-14.154c5.359-2.453,11.687-0.094,14.148,5.248l87.374,2.531c2.594-5.297,8.968-7.498,14.28-4.906
	c5.281,2.578,7.484,8.969,4.906,14.25l-21.343,43.75C306.463,370.989,302.744,373.333,298.65,373.333z"/>
<polygon style="fill:#F5F7FA;" points="255.995,373.333 277.339,373.333 277.339,312.724 255.995,312.224 "/>
<g>
	<path style="fill:#434A54;" d="M42.663,214.242c-5.89,0-10.664-4.773-10.664-10.664v-54.249c0-5.891,4.773-10.672,10.664-10.672
		c0.797,0,19.578,0.031,38.71,2.516c11.687,1.516,21.164,3.672,28.164,6.391c15.257,5.945,18.46,14.781,18.46,21.147
		c0,5.891-4.773,10.664-10.664,10.664c-5.445,0-63.999,24.203-63.999,24.203C53.335,209.469,48.554,214.242,42.663,214.242z"/>
	<path style="fill:#434A54;" d="M42.663,332.833c-5.89,0-10.664-4.781-10.664-10.656v-58.6c0-5.891,4.773-10.671,10.664-10.671
		s10.672,4.781,10.672,10.671c0,0,58.554,28.539,63.999,28.539c5.891,0,10.664,4.781,10.664,10.656
		c0,6.373-3.203,15.217-18.46,21.154c-7,2.719-16.477,4.875-28.164,6.391C62.241,332.802,43.46,332.833,42.663,332.833z"/>
</g>
<path style="fill:#FFCE54;" d="M452.475,172.227c-30.422-15.304-83.639-33.538-164.48-33.538
	c-69.679,0-140.662,9.312-194.747,25.546C16.179,187.375,0,215.523,0,235.054c0,19.539,16.179,47.687,93.248,70.828
	c54.085,16.232,125.068,25.545,194.747,25.545c80.842,0,134.059-18.234,164.48-33.529c36.703-18.484,59.515-42.554,59.515-62.843
	C511.99,214.773,489.179,190.703,452.475,172.227z"/>
<path style="fill:#F6BB42;" d="M452.475,172.227c-4.547-2.281-9.578-4.632-15.141-6.968v139.607
	c5.562-2.344,10.594-4.688,15.141-6.969c36.703-18.484,59.515-42.554,59.515-62.843C511.99,214.773,489.179,190.703,452.475,172.227
	z"/>
<path style="fill:#656D78;" d="M106.662,245.328H42.663c-5.89,0-10.664-4.781-10.664-10.672s4.773-10.664,10.664-10.664h63.999
	c5.891,0,10.671,4.773,10.671,10.664S112.553,245.328,106.662,245.328z"/>
<g>
	<path style="fill:#FFCE54;" d="M447.991,223.992c5.891,0,10.656-4.773,10.656-10.664s-4.766-10.671-10.656-10.671h-10.656v21.335
		L447.991,223.992L447.991,223.992z"/>
	<path style="fill:#FFCE54;" d="M447.991,266.655c5.891,0,10.656-4.773,10.656-10.664c0-5.891-4.766-10.664-10.656-10.664h-10.656
		v21.328H447.991z"/>
</g>
</svg>